<svg width="1201" height="298" viewBox="0 0 1201 298" fill="none" xmlns="http://www.w3.org/2000/svg">
<path d="M96.7838 148.88C96.7838 142.08 98.1438 136.12 100.864 131C103.664 125.8 107.504 121.8 112.384 119C117.264 116.2 122.864 114.8 129.184 114.8C137.184 114.8 143.784 116.72 148.984 120.56C154.264 124.32 157.824 129.72 159.664 136.76H144.904C143.704 133.48 141.784 130.92 139.144 129.08C136.504 127.24 133.184 126.32 129.184 126.32C123.584 126.32 119.104 128.32 115.744 132.32C112.464 136.24 110.824 141.76 110.824 148.88C110.824 156 112.464 161.56 115.744 165.56C119.104 169.56 123.584 171.56 129.184 171.56C137.104 171.56 142.344 168.08 144.904 161.12H159.664C157.744 167.84 154.144 173.2 148.864 177.2C143.584 181.12 137.024 183.08 129.184 183.08C122.864 183.08 117.264 181.68 112.384 178.88C107.504 176 103.664 172 100.864 166.88C98.1438 161.68 96.7838 155.68 96.7838 148.88ZM186.977 93.2V182H173.297V93.2H186.977ZM211.898 107.12C209.418 107.12 207.338 106.28 205.658 104.6C203.978 102.92 203.138 100.84 203.138 98.36C203.138 95.88 203.978 93.8 205.658 92.12C207.338 90.44 209.418 89.6 211.898 89.6C214.298 89.6 216.338 90.44 218.018 92.12C219.698 93.8 220.538 95.88 220.538 98.36C220.538 100.84 219.698 102.92 218.018 104.6C216.338 106.28 214.298 107.12 211.898 107.12ZM218.618 115.88V182H204.938V115.88H218.618ZM316.618 114.8C321.818 114.8 326.458 115.88 330.538 118.04C334.698 120.2 337.938 123.4 340.258 127.64C342.658 131.88 343.858 137 343.858 143V182H330.298V145.04C330.298 139.12 328.818 134.6 325.858 131.48C322.898 128.28 318.858 126.68 313.738 126.68C308.618 126.68 304.538 128.28 301.498 131.48C298.538 134.6 297.058 139.12 297.058 145.04V182H283.498V145.04C283.498 139.12 282.018 134.6 279.058 131.48C276.098 128.28 272.058 126.68 266.938 126.68C261.818 126.68 257.738 128.28 254.698 131.48C251.738 134.6 250.258 139.12 250.258 145.04V182H236.578V115.88H250.258V123.44C252.498 120.72 255.338 118.6 258.778 117.08C262.218 115.56 265.898 114.8 269.818 114.8C275.098 114.8 279.818 115.92 283.978 118.16C288.138 120.4 291.338 123.64 293.578 127.88C295.578 123.88 298.698 120.72 302.938 118.4C307.178 116 311.738 114.8 316.618 114.8ZM356.706 148.64C356.706 142 358.066 136.12 360.786 131C363.586 125.88 367.346 121.92 372.066 119.12C376.866 116.24 382.146 114.8 387.906 114.8C393.106 114.8 397.626 115.84 401.466 117.92C405.386 119.92 408.506 122.44 410.826 125.48V115.88H424.626V182H410.826V172.16C408.506 175.28 405.346 177.88 401.346 179.96C397.346 182.04 392.786 183.08 387.666 183.08C381.986 183.08 376.786 181.64 372.066 178.76C367.346 175.8 363.586 171.72 360.786 166.52C358.066 161.24 356.706 155.28 356.706 148.64ZM410.826 148.88C410.826 144.32 409.866 140.36 407.946 137C406.106 133.64 403.666 131.08 400.626 129.32C397.586 127.56 394.306 126.68 390.786 126.68C387.266 126.68 383.986 127.56 380.946 129.32C377.906 131 375.426 133.52 373.506 136.88C371.666 140.16 370.746 144.08 370.746 148.64C370.746 153.2 371.666 157.2 373.506 160.64C375.426 164.08 377.906 166.72 380.946 168.56C384.066 170.32 387.346 171.2 390.786 171.2C394.306 171.2 397.586 170.32 400.626 168.56C403.666 166.8 406.106 164.24 407.946 160.88C409.866 157.44 410.826 153.44 410.826 148.88ZM458.554 127.04V163.64C458.554 166.12 459.114 167.92 460.234 169.04C461.434 170.08 463.434 170.6 466.234 170.6H474.634V182H463.834C457.674 182 452.954 180.56 449.674 177.68C446.394 174.8 444.754 170.12 444.754 163.64V127.04H436.954V115.88H444.754V99.44H458.554V115.88H474.634V127.04H458.554ZM547.842 147.32C547.842 149.8 547.682 152.04 547.362 154.04H496.842C497.242 159.32 499.202 163.56 502.722 166.76C506.242 169.96 510.562 171.56 515.682 171.56C523.042 171.56 528.242 168.48 531.282 162.32H546.042C544.042 168.4 540.402 173.4 535.122 177.32C529.922 181.16 523.442 183.08 515.682 183.08C509.362 183.08 503.682 181.68 498.642 178.88C493.682 176 489.762 172 486.882 166.88C484.082 161.68 482.682 155.68 482.682 148.88C482.682 142.08 484.042 136.12 486.762 131C489.562 125.8 493.442 121.8 498.402 119C503.442 116.2 509.202 114.8 515.682 114.8C521.922 114.8 527.482 116.16 532.362 118.88C537.242 121.6 541.042 125.44 543.762 130.4C546.482 135.28 547.842 140.92 547.842 147.32ZM533.562 143C533.482 137.96 531.682 133.92 528.162 130.88C524.642 127.84 520.282 126.32 515.082 126.32C510.362 126.32 506.322 127.84 502.962 130.88C499.602 133.84 497.602 137.88 496.962 143H533.562ZM672.517 114.8C677.717 114.8 682.357 115.88 686.437 118.04C690.597 120.2 693.837 123.4 696.157 127.64C698.557 131.88 699.757 137 699.757 143V182H686.197V145.04C686.197 139.12 684.717 134.6 681.757 131.48C678.797 128.28 674.757 126.68 669.637 126.68C664.517 126.68 660.437 128.28 657.397 131.48C654.437 134.6 652.957 139.12 652.957 145.04V182H639.397V145.04C639.397 139.12 637.917 134.6 634.957 131.48C631.997 128.28 627.957 126.68 622.837 126.68C617.717 126.68 613.637 128.28 610.597 131.48C607.637 134.6 606.157 139.12 606.157 145.04V182H592.477V115.88H606.157V123.44C608.397 120.72 611.237 118.6 614.677 117.08C618.117 115.56 621.797 114.8 625.717 114.8C630.997 114.8 635.717 115.92 639.877 118.16C644.037 120.4 647.237 123.64 649.477 127.88C651.477 123.88 654.597 120.72 658.837 118.4C663.077 116 667.637 114.8 672.517 114.8ZM745.844 183.08C739.604 183.08 733.964 181.68 728.924 178.88C723.884 176 719.924 172 717.044 166.88C714.164 161.68 712.724 155.68 712.724 148.88C712.724 142.16 714.204 136.2 717.164 131C720.124 125.8 724.164 121.8 729.284 119C734.404 116.2 740.124 114.8 746.444 114.8C752.764 114.8 758.484 116.2 763.604 119C768.724 121.8 772.764 125.8 775.724 131C778.684 136.2 780.164 142.16 780.164 148.88C780.164 155.6 778.644 161.56 775.604 166.76C772.564 171.96 768.404 176 763.124 178.88C757.924 181.68 752.164 183.08 745.844 183.08ZM745.844 171.2C749.364 171.2 752.644 170.36 755.684 168.68C758.804 167 761.324 164.48 763.244 161.12C765.164 157.76 766.124 153.68 766.124 148.88C766.124 144.08 765.204 140.04 763.364 136.76C761.524 133.4 759.084 130.88 756.044 129.2C753.004 127.52 749.724 126.68 746.204 126.68C742.684 126.68 739.404 127.52 736.364 129.2C733.404 130.88 731.044 133.4 729.284 136.76C727.524 140.04 726.644 144.08 726.644 148.88C726.644 156 728.444 161.52 732.044 165.44C735.724 169.28 740.324 171.2 745.844 171.2ZM827.048 114.8C832.248 114.8 836.888 115.88 840.968 118.04C845.128 120.2 848.368 123.4 850.688 127.64C853.008 131.88 854.168 137 854.168 143V182H840.608V145.04C840.608 139.12 839.128 134.6 836.168 131.48C833.208 128.28 829.168 126.68 824.048 126.68C818.928 126.68 814.848 128.28 811.808 131.48C808.848 134.6 807.368 139.12 807.368 145.04V182H793.688V115.88H807.368V123.44C809.608 120.72 812.448 118.6 815.888 117.08C819.408 115.56 823.128 114.8 827.048 114.8ZM878.577 107.12C876.097 107.12 874.017 106.28 872.337 104.6C870.657 102.92 869.817 100.84 869.817 98.36C869.817 95.88 870.657 93.8 872.337 92.12C874.017 90.44 876.097 89.6 878.577 89.6C880.977 89.6 883.017 90.44 884.697 92.12C886.377 93.8 887.217 95.88 887.217 98.36C887.217 100.84 886.377 102.92 884.697 104.6C883.017 106.28 880.977 107.12 878.577 107.12ZM885.297 115.88V182H871.617V115.88H885.297ZM919.218 127.04V163.64C919.218 166.12 919.778 167.92 920.898 169.04C922.098 170.08 924.098 170.6 926.898 170.6H935.298V182H924.498C918.338 182 913.618 180.56 910.338 177.68C907.058 174.8 905.418 170.12 905.418 163.64V127.04H897.618V115.88H905.418V99.44H919.218V115.88H935.298V127.04H919.218ZM976.586 183.08C970.346 183.08 964.706 181.68 959.666 178.88C954.626 176 950.666 172 947.786 166.88C944.906 161.68 943.466 155.68 943.466 148.88C943.466 142.16 944.946 136.2 947.906 131C950.866 125.8 954.906 121.8 960.026 119C965.146 116.2 970.866 114.8 977.186 114.8C983.506 114.8 989.226 116.2 994.346 119C999.466 121.8 1003.51 125.8 1006.47 131C1009.43 136.2 1010.91 142.16 1010.91 148.88C1010.91 155.6 1009.39 161.56 1006.35 166.76C1003.31 171.96 999.146 176 993.866 178.88C988.666 181.68 982.906 183.08 976.586 183.08ZM976.586 171.2C980.106 171.2 983.386 170.36 986.426 168.68C989.546 167 992.066 164.48 993.986 161.12C995.906 157.76 996.866 153.68 996.866 148.88C996.866 144.08 995.946 140.04 994.106 136.76C992.266 133.4 989.826 130.88 986.786 129.2C983.746 127.52 980.466 126.68 976.946 126.68C973.426 126.68 970.146 127.52 967.106 129.2C964.146 130.88 961.786 133.4 960.026 136.76C958.266 140.04 957.386 144.08 957.386 148.88C957.386 156 959.186 161.52 962.786 165.44C966.466 169.28 971.066 171.2 976.586 171.2ZM1038.11 125.48C1040.11 122.12 1042.75 119.52 1046.03 117.68C1049.39 115.76 1053.35 114.8 1057.91 114.8V128.96H1054.43C1049.07 128.96 1044.99 130.32 1042.19 133.04C1039.47 135.76 1038.11 140.48 1038.11 147.2V182H1024.43V115.88H1038.11V125.48Z" fill="#00AAFF"/>
</svg>
